#!OML:ASF H:\Not Pregnant\Project 1\Capture day 1\Session 1\non-pregnant.ASF
:FULLY-SPECIFIED
:DEGREES
2328
root -8.07898 15.6584 37.7372 1094.06 -139.951 -1.44584
lowerback -3.23527 1.95256 -1.65271
upperback -7.72044 2.0266 -2.31392
thorax -6.18649 0.825731 -1.50901
lowerneck 26.7094 -8.72946 -30.4254
upperneck -5.25448 -24.3627 42.7864
head 4.2945 -16.2615 22.2631
rclavicle 2.17172e-014 -7.95139e-016
rhumerus -39.9004 -16.7174 -73.2557
rradius 21.611
rwrist 30.2511
rhand -9.78492 -1.62576
rfingers 7.12502
rthumb 16.1908 -30.9696
lclavicle 2.17172e-014 -7.95139e-016
lhumerus -42.9715 -5.72716 82.1232
lradius 37.3794
lwrist 40.1414
lhand -16.3238 -12.0929
lfingers 7.12502
lthumb 9.88778 17.6549
rfemur -15.8321 11.6031 16.8854
rtibia 33.9178
rfoot -19.4033 31.5744
rtoes 10.2245
lfemur -25.4003 3.91311 -20.9599
ltibia 39.7365
lfoot -22.307 -5.23349
ltoes -30.3264
2329
root -8.09722 15.663 37.7262 1094.23 -141.349 -1.59414
lowerback -3.13318 2.03812 -1.96457
upperback -7.70782 2.1238 -2.4202
thorax -6.24042 0.885541 -1.45126
lowerneck 26.4881 -8.7406 -30.3379
upperneck -5.20046 -24.3875 42.8583
head 4.36064 -16.2814 22.2526
rclavicle 2.27111e-014 -1.51076e-014
rhumerus -39.7861 -16.2925 -73.6101
rradius 21.7644
rwrist 29.6815
rhand -9.60781 -1.60189
rfingers 7.12502
rthumb 16.3613 -30.9318
lclavicle 2.27111e-014 -1.51076e-014
lhumerus -43.0057 -5.60897 81.8586
lradius 37.3504
lwrist 40.1898
lhand -16.3399 -12.013
lfingers 7.12502
lthumb 9.87226 17.7355
rfemur -16.458 11.8879 16.4963
rtibia 34.654
rfoot -19.654 31.1188
rtoes 8.34018
lfemur -25.1561 3.65518 -20.9469
ltibia 39.526
lfoot -22.3263 -5.35708
ltoes -30.9932
2330
root -8.11397 15.6685 37.7149 1094.41 -142.736 -1.75388
lowerback -3.03945 2.12568 -2.31764
upperback -7.69545 2.22198 -2.52591
thorax -6.29289 0.947993 -1.37026
lowerneck 26.3191 -8.7648 -30.1836
upperneck -5.19335 -24.4019 42.9193
head 4.38488 -16.2972 22.2261
rclavicle 1.38304e-013 -2.54444e-014
rhumerus -39.6727 -15.8739 -73.9647
rradius 21.9498
rwrist 29.0989
rhand -9.46624 -1.58122
rfingers 7.12502
rthumb 16.4976 -30.8998
lclavicle 1.38304e-013 -2.54444e-014
lhumerus -43.0114 -5.48572 81.5962
lradius 37.287
lwrist 40.2066
lhand -16.3343 -11.9334
lfingers 7.12502
lthumb 9.87761 17.8149
rfemur -17.1179 12.0611 16.1135
rtibia 35.4216
rfoot -20.0277 30.4438
rtoes 6.00643
lfemur -24.9174 3.37692 -20.9415
ltibia 39.2867
lfoot -22.3379 -5.56211
ltoes -31.5923
2331
root -8.12928 15.6746 37.7036 1094.59 -144.111 -1.90729
lowerback -2.94785 2.21005 -2.6982
upperback -7.68725 2.3145 -2.61994
thorax -6.35177 1.00941 -1.26228
lowerneck 26.2102 -8.78219 -29.9897
upperneck -5.23134 -24.3914 42.9775
head 4.36614 -16.3044 22.2043
rclavicle -3.73467e-014 3.18055e-015
rhumerus -39.565 -15.4525 -74.31
rradius 22.1654
rwrist 28.5597
rhand -9.33844 -1.55598
rfingers 7.12502
rthumb 16.6206 -30.8643
lclavicle -3.73467e-014 3.18055e-015
lhumerus -43.0062 -5.34919 81.3445
lradius 37.1982
lwrist 40.1934
lhand -16.3135 -11.8621
lfingers 7.12502
lthumb 9.89773 17.8853
rfemur -17.8098 12.1151 15.7594
rtibia 36.219
rfoot -20.5566 29.5077
rtoes 3.17753
lfemur -24.6856 3.0838 -20.9295
ltibia 39.0275
lfoot -22.3441 -5.84942
ltoes -32.0978
2332
root -8.14345 15.6815 37.6919 1094.76 -145.485 -2.04286
lowerback -2.84677 2.30253 -3.08794
upperback -7.68281 2.41583 -2.71243
thorax -6.42219 1.07573 -1.14898
lowerneck 26.1157 -8.8091 -29.7661
upperneck -5.29303 -24.3788 43.0322
head 4.33111 -16.3106 22.1733
rclavicle 9.34785e-014 -1.66979e-014
rhumerus -39.4743 -15.0679 -74.6402
rradius 22.4026
rwrist 28.1039
rhand -9.30578 -1.50376
rfingers 7.12502
rthumb 16.6521 -30.8095
lclavicle 9.34785e-014 -1.66979e-014
lhumerus -42.9845 -5.22485 81.0959
lradius 37.0863
lwrist 40.1667
lhand -16.2764 -11.7925
lfingers 7.12502
lthumb 9.93353 17.9531
rfemur -18.5228 12.0556 15.4497
rtibia 37.0416
rfoot -21.1754 28.3153
rtoes 0.0494916
lfemur -24.4474 2.79031 -20.9042
ltibia 38.7535
lfoot -22.3469 -6.17395
ltoes -32.5632
2333
root -8.15691 15.6882 37.6794 1094.9 -146.87 -2.15366
lowerback -2.73708 2.40736 -3.48408
upperback -7.67681 2.53273 -2.7988
thorax -6.49828 1.1506 -1.02735
lowerneck 26.0213 -8.83931 -29.5426
upperneck -5.36413 -24.3708 43.0927
head 4.297 -16.32 22.1442
rclavicle 6.92019e-014 1.11319e-014
rhumerus -39.389 -14.7257 -74.9434
rradius 22.6416
rwrist 27.7617
rhand -9.38089 -1.38279
rfingers 7.12502
rthumb 16.5798 -30.6945
lclavicle 6.92019e-014 1.11319e-014
lhumerus -42.9518 -5.1153 80.8572
lradius 36.9647
lwrist 40.1451
lhand -16.2303 -11.7186
lfingers 7.12502
lthumb 9.97799 18.0249
rfemur -19.2408 11.8627 15.1956
rtibia 37.8834
rfoot -21.8522 26.8718
rtoes -3.17011
lfemur -24.1897 2.52895 -20.8648
ltibia 38.473
lfoot -22.353 -6.53914
ltoes -32.9763
2334
root -8.17017 15.6954 37.6658 1094.99 -148.273 -2.22536
lowerback -2.60404 2.55195 -3.85086
upperback -7.68762 2.69733 -2.90655
thorax -6.60582 1.24634 -0.948439
lowerneck 25.9734 -8.87215 -29.2952
upperneck -5.43956 -24.3844 43.1701
head 4.2629 -16.3499 22.1234
rclavicle 1.07518e-013 9.54166e-015
rhumerus -39.3834 -14.4946 -75.2116
rradius 22.8814
rwrist 27.5083
rhand -9.46149 -1.22409
rfingers 7.12502
rthumb 16.5022 -30.5423
lclavicle 1.07518e-013 9.54166e-015
lhumerus -42.9367 -5.11057 80.6267
lradius 36.8388
lwrist 40.1399
lhand -16.1672 -11.6412
lfingers 7.12502
lthumb 10.0389 18.0994
rfemur -19.954 11.5717 15.0092
rtibia 38.7344
rfoot -22.4525 25.197
rtoes -5.97794
lfemur -23.8956 2.29767 -20.8011
ltibia 38.188
lfoot -22.3543 -6.90671
ltoes -33.3614
2335
root -8.18317 15.7028 37.6514 1095.04 -149.691 -2.25599
lowerback -2.44762 2.73395 -4.1835
upperback -7.71317 2.90666 -3.03385
thorax -6.74252 1.36134 -0.913533
lowerneck 25.9642 -8.90422 -29.0318
upperneck -5.51764 -24.4192 43.2726
head 4.23379 -16.4011 22.1181
rclavicle 7.45939e-014 -7.95139e-015
rhumerus -39.4448 -14.3877 -75.4398
rradius 23.1182
rwrist 27.3335
rhand -9.57652 -1.00122
rfingers 7.12502
rthumb 16.3914 -30.3286
lclavicle 7.45939e-014 -7.95139e-015
lhumerus -42.9432 -5.22676 80.4203
lradius 36.7239
lwrist 40.132
lhand -16.1601 -11.5438
lfingers 7.12502
lthumb 10.0457 18.1965
rfemur -20.6622 11.1779 14.8968
rtibia 39.5832
rfoot -22.9681 23.2633
rtoes -8.32782
lfemur -23.5689 2.10686 -20.7155
ltibia 37.9038
lfoot -22.3486 -7.2593
ltoes -33.7489
2336
root -8.19617 15.7103 37.6361 1095.04 -151.13 -2.24556
lowerback -2.27614 2.9579 -4.47922
upperback -7.75457 3.16673 -3.18209
thorax -6.90456 1.49815 -0.926309
lowerneck 26.0259 -8.9216 -28.7478
upperneck -5.60875 -24.4656 43.4154
head 4.19925 -16.4757 22.1487
rclavicle 6.77856e-014 -5.1684e-014
rhumerus -39.5832 -14.4385 -75.6106
rradius 23.3639
rwrist 27.2203
rhand -9.52142 -0.82272
rfingers 7.12502
rthumb 16.4445 -30.1457
lclavicle 6.77856e-014 -5.1684e-014
lhumerus -42.9766 -5.46475 80.2331
lradius 36.6241
lwrist 40.1094
lhand -16.185 -11.43
lfingers 7.12502
lthumb 10.0217 18.3114
rfemur -21.3707 10.6681 14.8556
rtibia 40.4108
rfoot -23.3938 21.0807
rtoes -10.1857
lfemur -23.2086 1.95637 -20.6124
ltibia 37.6211
lfoot -22.3298 -7.56378
ltoes -34.1601
2337
root -8.20856 15.7179 37.6211 1095.03 -152.568 -2.20871
lowerback -2.09496 3.19315 -4.75226
upperback -7.80767 3.43888 -3.32562
thorax -7.08569 1.63964 -0.950764
lowerneck 26.1559 -8.92167 -28.4524
upperneck -5.71994 -24.4991 43.5656
head 4.14027 -16.5529 22.1998
rclavicle -9.63857e-014 -2.8625e-014
rhumerus -39.747 -14.5586 -75.7461
rradius 23.6195
rwrist 27.1168
rhand -9.33057 -0.725783
rfingers 7.12502
rthumb 16.6282 -30.0335
lclavicle -9.63857e-014 -2.8625e-014
lhumerus -43.0317 -5.73829 80.0688
lradius 36.5412
lwrist 40.0554
lhand -16.2402 -11.3029
lfingers 7.12502
lthumb 9.96847 18.4411
rfemur -22.1021 10.0277 14.8729
rtibia 41.1953
rfoot -23.7802 18.6323
rtoes -11.8211
lfemur -22.8459 1.81436 -20.5046
ltibia 37.3434
lfoot -22.2817 -7.79272
ltoes -34.6018
